<?xml version="1.0" encoding="UTF-8" ?>
<!DOCTYPE svg PUBLIC "-//W3C//DTD SVG 1.1//EN" "http://www.w3.org/Graphics/SVG/1.1/DTD/svg11.dtd">
<svg width="818pt" height="706pt" viewBox="0 0 818 706" version="1.1" xmlns="http://www.w3.org/2000/svg">
<g id="#9adefdff">
<path fill="#9adefd" opacity="1.00" d=" M 0.00 0.00 L 0.22 0.00 C 0.16 0.05 0.05 0.16 0.00 0.22 L 0.00 0.00 Z" />
<path fill="#9adefd" opacity="1.00" d=" M 371.80 52.91 C 385.79 51.18 399.92 52.16 413.99 51.90 C 441.72 54.02 469.46 57.71 496.35 65.11 C 550.37 79.79 601.44 106.39 643.04 144.01 C 652.15 152.54 660.92 161.43 669.46 170.52 C 684.77 188.00 698.17 207.13 709.40 227.47 C 712.59 233.67 716.07 239.77 718.40 246.36 C 718.67 246.47 719.20 246.70 719.46 246.81 C 720.34 250.52 722.03 253.96 723.48 257.48 C 730.57 274.72 735.59 292.77 739.29 311.03 C 739.36 315.78 741.52 320.23 741.44 324.99 C 741.29 330.73 744.19 336.27 742.82 342.00 C 742.99 355.33 743.15 368.68 742.77 382.01 C 742.71 384.66 743.70 387.32 742.80 389.94 C 741.36 402.90 739.47 415.83 736.37 428.51 C 735.98 430.43 735.64 432.36 735.64 434.33 C 735.18 434.39 734.27 434.53 733.81 434.60 C 733.77 436.55 733.71 438.50 733.76 440.46 C 733.31 440.52 732.41 440.65 731.96 440.72 C 731.93 449.09 727.35 456.50 725.41 464.48 C 725.15 464.53 724.63 464.62 724.37 464.66 C 724.46 466.83 723.53 468.81 722.66 470.74 C 708.59 505.02 687.77 536.44 662.37 563.37 C 655.03 571.38 646.67 578.34 638.93 585.94 C 623.51 599.12 607.16 611.31 589.63 621.57 C 585.36 623.93 581.34 626.81 576.72 628.47 C 576.61 628.74 576.39 629.28 576.28 629.55 C 574.05 630.47 571.86 631.47 569.58 632.27 C 569.51 632.53 569.37 633.06 569.30 633.32 C 566.30 634.07 563.64 635.68 560.87 636.97 C 543.49 645.42 525.41 652.39 506.94 658.04 C 505.56 658.57 504.11 658.30 502.73 657.99 C 502.66 658.42 502.53 659.28 502.47 659.71 C 490.74 661.52 479.49 666.93 467.40 665.83 C 467.99 666.50 468.55 667.21 469.05 667.98 C 460.52 668.13 452.17 670.09 443.77 671.37 C 431.49 672.06 419.33 674.41 406.99 674.06 C 392.50 673.90 377.93 674.76 363.56 672.74 C 298.79 667.57 235.05 645.68 181.79 608.21 C 171.24 600.90 161.20 592.87 151.51 584.48 C 145.06 577.91 137.73 572.24 131.71 565.26 C 128.44 561.54 124.91 558.07 121.55 554.45 C 94.86 523.55 73.73 487.62 61.37 448.61 C 58.19 438.28 55.01 427.86 53.60 417.13 C 51.21 408.23 50.19 399.06 49.26 389.92 C 48.16 386.65 49.67 383.32 49.18 380.00 C 48.21 374.71 48.61 369.32 48.00 364.00 C 47.11 355.64 50.29 347.35 48.76 339.02 C 49.94 332.37 50.16 325.59 51.50 318.97 C 51.69 315.98 52.91 312.96 51.96 309.99 C 52.68 310.95 53.39 311.92 54.08 312.91 C 54.10 309.73 54.03 306.55 54.42 303.39 C 59.89 278.47 68.67 254.23 80.58 231.65 C 81.31 230.18 81.99 228.68 82.67 227.18 C 90.98 213.22 99.41 199.23 109.51 186.46 C 121.42 170.57 135.63 156.63 150.03 143.02 C 164.11 130.72 178.89 119.12 194.85 109.35 C 222.11 91.83 251.96 78.41 282.89 68.80 C 284.94 68.14 287.11 68.16 289.24 68.00 C 289.33 67.56 289.53 66.70 289.62 66.27 C 297.63 65.50 305.06 61.46 313.24 62.04 C 313.33 61.61 313.51 60.75 313.60 60.32 C 321.58 59.76 329.27 57.24 337.22 56.40 C 341.67 56.43 346.03 55.49 350.34 54.46 C 357.50 53.89 364.75 54.66 371.80 52.91 M 331.34 156.23 C 328.14 157.24 324.61 155.99 321.45 157.26 C 317.76 158.64 314.00 159.85 310.25 161.10 C 306.27 162.51 302.83 165.03 299.32 167.31 C 294.30 170.72 291.36 176.21 288.16 181.20 C 287.64 182.02 286.62 183.43 285.52 182.60 C 280.60 179.56 274.54 180.79 269.08 180.90 C 265.88 182.28 262.54 182.88 259.07 182.84 C 252.48 185.15 246.21 188.46 240.57 192.59 C 237.37 194.38 235.81 197.83 233.69 200.65 C 229.69 206.42 228.08 213.34 226.37 220.04 C 217.31 222.60 210.05 229.07 204.04 236.05 C 201.51 241.33 200.47 247.22 198.44 252.72 C 192.91 252.27 186.83 251.73 181.97 254.95 C 177.86 257.73 173.08 260.06 170.50 264.50 C 167.57 268.89 166.32 274.07 165.05 279.12 C 164.18 282.96 165.28 287.06 163.76 290.79 C 162.55 293.88 162.79 297.25 162.24 300.47 C 160.12 307.81 157.78 315.20 153.77 321.76 C 150.50 326.85 147.70 332.24 144.12 337.13 C 137.89 345.06 132.28 353.49 127.02 362.09 C 122.90 368.76 121.48 376.55 119.64 384.05 C 118.88 389.66 119.40 395.35 119.23 400.99 C 118.90 406.77 120.32 412.48 122.06 417.95 C 125.85 425.49 131.10 432.91 138.91 436.66 C 136.71 440.07 134.19 443.69 134.61 447.98 C 134.90 453.58 133.61 459.54 136.02 464.83 C 138.23 471.92 143.65 477.23 147.82 483.17 C 151.09 487.75 156.16 490.51 161.13 492.85 C 168.21 496.34 176.38 495.60 183.99 495.10 C 189.77 493.60 195.53 491.75 200.93 489.19 C 203.96 491.15 207.17 493.22 210.90 493.42 C 213.66 493.64 216.12 495.29 218.95 495.15 C 224.92 495.22 230.94 495.53 236.88 494.86 C 242.48 493.28 248.26 491.75 252.99 488.19 C 256.21 495.89 263.01 501.95 271.17 503.92 C 275.77 506.15 281.14 504.09 285.66 506.40 C 287.86 507.62 289.88 505.16 292.14 505.27 C 300.92 505.38 309.96 502.30 316.29 496.08 C 321.11 499.91 326.14 503.50 331.46 506.60 C 335.60 507.70 340.00 506.88 344.21 507.66 C 350.40 507.61 356.30 505.29 362.34 504.16 C 372.52 501.89 379.93 493.65 389.89 490.85 C 395.56 488.65 401.78 488.87 407.74 489.42 C 416.31 491.17 423.33 496.81 430.48 501.51 C 435.59 504.89 441.85 505.46 447.54 507.41 C 450.52 508.31 453.67 509.81 456.84 508.86 C 461.16 507.58 465.41 506.02 469.77 504.85 C 475.07 503.38 478.65 498.99 482.94 495.87 C 488.35 499.42 494.08 502.65 500.22 504.74 C 505.73 505.87 511.42 505.28 517.00 505.38 C 529.08 505.88 541.99 499.62 547.10 488.27 C 556.68 495.73 569.48 495.89 581.06 495.16 C 584.12 494.96 586.86 493.34 589.93 493.18 C 593.63 492.84 596.51 490.26 599.90 489.05 C 605.88 492.06 612.12 495.12 618.97 495.32 C 623.31 495.38 627.68 495.60 632.00 495.11 C 637.71 493.96 642.71 490.69 647.40 487.39 C 651.96 484.28 654.82 479.42 658.17 475.16 C 660.87 470.66 663.55 466.00 665.04 460.93 C 665.63 456.30 665.40 451.60 665.33 446.94 C 665.28 443.05 663.08 439.69 660.96 436.60 C 663.66 434.00 667.24 432.54 669.91 429.91 C 676.25 423.10 679.37 414.00 681.16 405.04 C 681.43 398.69 681.51 392.31 681.20 385.96 C 679.74 378.37 677.25 370.99 673.90 364.02 C 664.90 346.90 650.79 332.97 642.71 315.30 C 638.57 307.08 637.46 297.82 635.49 288.95 C 635.93 279.98 633.43 270.96 628.67 263.36 C 624.37 257.71 617.60 254.69 610.94 252.81 C 607.85 252.38 604.72 252.76 601.63 252.40 C 598.91 249.61 599.61 245.35 598.11 241.99 C 594.75 232.15 586.12 225.24 576.88 221.15 C 574.05 220.14 572.05 217.62 571.66 214.65 C 570.79 207.01 566.45 200.21 561.39 194.61 C 555.91 189.10 548.57 185.96 541.31 183.53 C 538.14 181.94 534.36 183.42 531.27 181.62 C 528.37 180.23 525.06 180.66 521.97 180.75 C 518.80 180.91 515.85 183.47 512.66 182.49 C 509.47 178.00 506.99 172.90 502.83 169.16 C 500.36 166.74 497.05 165.55 494.14 163.78 C 489.51 160.41 483.71 159.53 478.50 157.40 C 475.60 156.16 472.40 156.89 469.37 156.51 C 463.05 153.60 455.80 154.78 449.06 154.88 C 445.88 156.31 442.56 156.84 439.08 156.71 C 433.57 158.58 427.65 160.14 423.43 164.42 C 418.02 168.86 413.55 175.31 414.35 182.64 C 410.38 182.56 406.19 183.16 402.50 181.35 C 399.84 180.06 397.16 181.71 394.62 182.43 C 391.70 182.95 388.71 182.87 385.77 182.74 C 386.28 174.13 380.26 167.05 373.80 162.17 C 370.48 159.66 366.35 158.75 362.55 157.26 C 360.27 156.23 357.74 156.93 355.35 156.58 C 353.05 155.47 350.69 154.33 348.05 154.64 C 342.48 154.95 336.55 153.71 331.34 156.23 Z" />
</g>
<g id="#561e16ff">
<path fill="#561e16" opacity="1.00" d=" M 331.34 156.23 C 336.55 153.71 342.48 154.95 348.05 154.64 C 350.69 154.33 353.05 155.47 355.35 156.58 C 357.74 156.93 360.27 156.23 362.55 157.26 C 366.35 158.75 370.48 159.66 373.80 162.17 C 380.26 167.05 386.28 174.13 385.77 182.74 C 388.71 182.87 391.70 182.95 394.62 182.43 C 397.16 181.71 399.84 180.06 402.50 181.35 C 406.19 183.16 410.38 182.56 414.35 182.64 C 413.55 175.31 418.02 168.86 423.43 164.42 C 427.65 160.14 433.57 158.58 439.08 156.71 C 442.56 156.84 445.88 156.31 449.06 154.88 C 455.80 154.78 463.05 153.60 469.37 156.51 C 472.40 156.89 475.60 156.16 478.50 157.40 C 483.71 159.53 489.51 160.41 494.14 163.78 C 497.05 165.55 500.36 166.74 502.83 169.16 C 506.99 172.90 509.47 178.00 512.66 182.49 C 515.85 183.47 518.80 180.91 521.97 180.75 C 525.06 180.66 528.37 180.23 531.27 181.62 C 534.36 183.42 538.14 181.94 541.31 183.53 C 548.57 185.96 555.91 189.10 561.39 194.61 C 566.45 200.21 570.79 207.01 571.66 214.65 C 572.05 217.62 574.05 220.14 576.88 221.15 C 586.12 225.24 594.75 232.15 598.11 241.99 C 599.61 245.35 598.91 249.61 601.63 252.40 C 604.72 252.76 607.85 252.38 610.94 252.81 C 617.60 254.69 624.37 257.71 628.67 263.36 C 633.43 270.96 635.93 279.98 635.49 288.95 C 637.46 297.82 638.57 307.08 642.71 315.30 C 650.79 332.97 664.90 346.90 673.90 364.02 C 677.25 370.99 679.74 378.37 681.20 385.96 C 681.51 392.31 681.43 398.69 681.16 405.04 C 679.37 414.00 676.25 423.10 669.91 429.91 C 667.24 432.54 663.66 434.00 660.96 436.60 C 663.08 439.69 665.28 443.05 665.33 446.94 C 665.40 451.60 665.63 456.30 665.04 460.93 C 663.55 466.00 660.87 470.66 658.17 475.16 C 654.82 479.42 651.96 484.28 647.40 487.39 C 642.71 490.69 637.71 493.96 632.00 495.11 C 627.68 495.60 623.31 495.38 618.97 495.32 C 612.12 495.12 605.88 492.06 599.90 489.05 C 596.51 490.26 593.63 492.84 589.93 493.18 C 586.86 493.34 584.12 494.96 581.06 495.16 C 569.48 495.89 556.68 495.73 547.10 488.27 C 541.99 499.62 529.08 505.88 517.00 505.38 C 511.42 505.28 505.73 505.87 500.22 504.74 C 494.08 502.65 488.35 499.42 482.94 495.87 C 478.65 498.99 475.07 503.38 469.77 504.85 C 465.41 506.02 461.16 507.58 456.84 508.86 C 453.67 509.81 450.52 508.31 447.54 507.41 C 441.85 505.46 435.59 504.89 430.48 501.51 C 423.33 496.81 416.31 491.17 407.74 489.42 C 401.78 488.87 395.56 488.65 389.89 490.85 C 379.93 493.65 372.52 501.89 362.34 504.16 C 356.30 505.29 350.40 507.61 344.21 507.66 C 340.00 506.88 335.60 507.70 331.46 506.60 C 326.14 503.50 321.11 499.91 316.29 496.08 C 309.96 502.30 300.92 505.38 292.14 505.27 C 289.88 505.16 287.86 507.62 285.66 506.40 C 281.14 504.09 275.77 506.15 271.17 503.92 C 263.01 501.95 256.21 495.89 252.99 488.19 C 248.26 491.75 242.48 493.28 236.88 494.86 C 230.94 495.53 224.92 495.22 218.95 495.15 C 216.12 495.29 213.66 493.64 210.90 493.42 C 207.17 493.22 203.96 491.15 200.93 489.19 C 195.53 491.75 189.77 493.60 183.99 495.10 C 176.38 495.60 168.21 496.34 161.13 492.85 C 156.16 490.51 151.09 487.75 147.82 483.17 C 143.65 477.23 138.23 471.92 136.02 464.83 C 133.61 459.54 134.90 453.58 134.61 447.98 C 134.19 443.69 136.71 440.07 138.91 436.66 C 131.10 432.91 125.85 425.49 122.06 417.95 C 120.32 412.48 118.90 406.77 119.23 400.99 C 119.40 395.35 118.88 389.66 119.64 384.05 C 121.48 376.55 122.90 368.76 127.02 362.09 C 132.28 353.49 137.89 345.06 144.12 337.13 C 147.70 332.24 150.50 326.85 153.77 321.76 C 157.78 315.20 160.12 307.81 162.24 300.47 C 162.79 297.25 162.55 293.88 163.76 290.79 C 165.28 287.06 164.18 282.96 165.05 279.12 C 166.32 274.07 167.57 268.89 170.50 264.50 C 173.08 260.06 177.86 257.73 181.97 254.95 C 186.83 251.73 192.91 252.27 198.44 252.72 C 200.47 247.22 201.51 241.33 204.04 236.05 C 210.05 229.07 217.31 222.60 226.37 220.04 C 228.08 213.34 229.69 206.42 233.69 200.65 C 235.81 197.83 237.37 194.38 240.57 192.59 C 246.21 188.46 252.48 185.15 259.07 182.84 C 262.54 182.88 265.88 182.28 269.08 180.90 C 274.54 180.79 280.60 179.56 285.52 182.60 C 286.62 183.43 287.64 182.02 288.16 181.20 C 291.36 176.21 294.30 170.72 299.32 167.31 C 302.83 165.03 306.27 162.51 310.25 161.10 C 314.00 159.85 317.76 158.64 321.45 157.26 C 324.61 155.99 328.14 157.24 331.34 156.23 M 331.41 161.36 C 324.55 162.82 317.53 164.12 311.19 167.27 C 302.36 171.23 295.20 178.92 292.14 188.14 C 288.34 198.09 289.43 209.47 294.29 218.87 C 299.82 219.29 305.37 218.84 310.90 219.15 C 316.16 219.97 321.15 222.35 325.23 225.74 C 326.72 226.79 328.42 228.95 330.37 227.47 C 335.50 224.65 341.77 224.13 347.38 225.65 C 348.12 227.25 348.01 229.06 348.14 230.78 C 342.51 230.69 336.10 230.47 331.78 234.75 C 330.18 237.28 330.32 240.49 329.27 243.24 C 328.16 246.06 322.29 245.64 323.18 242.12 C 323.43 238.60 325.28 234.39 322.58 231.37 C 314.08 224.31 301.49 222.97 291.48 227.49 C 286.22 230.04 282.68 235.07 280.00 240.09 C 277.60 244.55 277.78 249.75 276.52 254.53 C 271.66 257.38 264.49 255.61 260.47 260.41 C 255.06 267.16 256.72 276.49 258.93 284.15 C 259.92 286.64 257.89 288.37 255.97 289.48 C 251.95 286.43 251.48 281.12 250.42 276.58 C 248.93 270.42 250.89 264.06 253.66 258.57 C 256.96 252.49 264.11 250.03 270.66 249.67 C 272.05 242.37 274.41 235.03 279.29 229.29 C 281.74 226.37 285.11 224.45 287.76 221.74 C 287.35 217.81 285.23 214.32 284.56 210.44 C 283.22 203.07 284.05 195.54 285.09 188.19 C 275.57 188.59 265.55 186.60 256.55 190.62 C 248.74 193.17 241.53 198.15 237.65 205.57 C 234.37 210.58 234.22 216.72 232.28 222.22 C 228.11 225.62 222.73 227.17 218.52 230.57 C 210.97 235.70 204.97 244.27 205.39 253.65 C 208.19 257.14 212.26 259.69 214.02 263.98 C 217.28 271.52 215.84 279.94 215.95 287.91 C 216.67 291.27 211.71 292.38 210.31 289.61 C 209.15 283.07 211.25 276.25 209.17 269.81 C 207.16 263.72 201.75 258.00 195.01 257.82 C 183.41 258.16 172.66 267.64 171.29 279.25 C 169.72 293.00 167.89 307.04 161.72 319.62 C 156.46 330.25 149.45 339.87 142.28 349.27 C 136.22 357.89 129.99 366.72 127.03 376.97 C 123.02 388.94 123.21 402.15 126.89 414.18 C 128.98 419.56 132.55 424.34 136.71 428.30 C 142.22 433.34 150.22 431.65 157.01 431.86 C 164.80 431.71 169.32 424.72 173.19 418.95 C 174.88 419.99 177.95 421.24 176.96 423.75 C 174.46 430.17 168.57 434.75 162.33 437.29 C 156.30 439.89 149.63 438.39 143.30 439.15 C 139.62 445.27 139.43 452.69 140.53 459.55 C 142.21 465.76 145.76 471.30 149.90 476.15 C 153.45 480.21 157.08 484.45 161.88 487.07 C 169.97 491.04 179.47 490.39 187.92 487.94 C 190.49 487.00 194.15 487.33 195.70 484.72 C 195.33 480.37 192.85 476.41 192.86 471.97 C 192.91 464.85 196.42 457.91 202.05 453.56 C 203.63 454.41 205.96 454.91 206.24 457.03 C 204.95 460.54 201.61 462.86 200.45 466.44 C 199.05 472.79 199.70 480.51 205.28 484.73 C 212.24 490.49 221.75 488.54 230.04 488.89 C 236.62 489.33 243.43 487.64 248.83 483.81 C 251.75 481.71 251.74 477.81 252.72 474.68 C 254.64 467.99 258.32 460.56 265.72 458.81 C 268.02 457.53 272.09 459.94 270.78 462.55 C 267.89 465.09 263.92 466.39 261.79 469.77 C 257.67 475.55 255.97 484.28 260.82 490.16 C 266.18 497.80 276.10 500.35 285.00 499.97 C 295.22 500.36 305.83 497.64 313.76 490.97 C 311.38 485.24 309.78 478.79 311.62 472.67 C 312.97 468.41 314.60 463.93 317.88 460.77 C 319.40 459.02 322.61 459.85 323.03 462.13 C 323.32 464.26 321.67 466.03 320.81 467.86 C 317.53 472.76 317.37 479.02 318.46 484.64 C 320.77 492.31 327.11 499.27 335.21 500.73 C 342.22 501.07 349.45 501.44 356.23 499.22 C 364.12 497.00 372.69 494.74 378.24 488.25 C 383.20 482.40 386.06 474.70 386.04 467.03 C 386.09 462.17 386.23 456.87 383.27 452.72 C 378.15 445.49 368.17 442.34 359.72 444.73 C 356.27 445.38 351.89 447.41 349.25 443.95 C 352.73 437.53 360.78 437.87 367.06 438.02 C 372.80 437.63 378.20 440.08 382.95 443.06 C 386.81 445.53 389.28 449.50 391.96 453.10 C 396.15 446.01 396.58 435.72 390.38 429.63 C 383.95 422.70 374.06 418.13 364.57 420.61 C 362.27 421.55 360.44 419.25 360.28 417.16 C 363.23 413.27 368.73 413.84 373.05 413.98 C 378.56 414.02 383.38 416.96 388.64 418.14 C 392.03 410.13 395.89 401.91 395.94 393.03 C 395.92 387.29 395.93 381.54 395.78 375.81 C 390.02 377.10 385.08 381.24 379.00 381.20 C 368.87 380.78 358.08 374.40 355.95 363.91 C 355.25 361.09 357.88 359.47 359.96 358.33 C 362.72 362.25 363.12 367.82 367.39 370.59 C 372.19 374.14 378.65 375.02 384.32 373.33 C 389.76 371.19 393.84 366.21 395.50 360.68 C 396.49 355.85 395.88 350.89 396.05 346.01 C 395.98 342.08 396.62 337.53 393.62 334.44 C 391.10 330.76 386.53 330.00 382.79 328.17 C 381.01 325.08 382.12 321.09 382.73 317.74 C 384.99 306.98 393.21 297.57 391.97 286.15 C 390.15 279.12 387.15 271.02 379.95 267.95 C 374.48 265.27 368.13 265.82 362.25 266.30 C 352.51 268.25 344.89 275.84 339.99 284.13 C 339.65 285.14 338.38 286.52 339.39 287.49 C 342.50 291.16 345.69 295.02 346.67 299.88 C 348.96 299.20 351.36 299.01 353.73 299.29 C 353.65 301.02 354.79 303.70 352.68 304.60 C 348.95 306.38 344.62 307.61 342.23 311.28 C 338.46 315.54 338.53 321.56 339.24 326.86 C 339.65 330.73 343.93 333.36 342.82 337.53 C 337.79 337.78 332.49 339.09 329.17 343.18 C 323.54 348.95 322.78 357.74 324.81 365.20 C 327.12 369.94 331.71 372.96 335.15 376.81 C 336.84 374.94 338.32 372.38 340.96 371.82 C 343.55 371.96 344.70 375.34 343.30 377.34 C 341.41 381.06 339.35 385.87 342.39 389.58 C 345.05 391.78 348.55 393.30 349.46 396.99 C 346.55 398.33 342.93 398.69 340.24 396.67 C 336.27 393.93 334.89 389.00 334.66 384.42 C 328.57 378.85 321.03 373.97 318.07 365.90 C 315.07 356.88 317.87 346.80 323.40 339.36 C 326.07 335.78 330.27 333.96 334.20 332.13 C 333.02 328.89 331.73 325.55 331.93 322.04 C 332.26 314.67 336.19 308.05 341.20 302.85 C 338.67 294.12 331.12 287.59 322.36 285.57 C 317.57 283.72 312.88 286.51 308.16 287.11 C 307.10 286.21 306.34 285.04 305.51 283.96 C 307.21 282.14 308.96 280.12 311.44 279.41 C 319.01 277.79 326.81 279.42 333.74 282.63 C 338.15 272.68 346.66 264.54 357.03 261.04 C 365.14 257.90 374.60 258.05 382.39 262.07 C 385.27 256.55 387.69 250.81 390.14 245.09 C 392.79 237.03 394.42 228.54 394.10 220.02 C 394.42 212.37 392.81 203.56 386.27 198.74 C 383.90 196.65 380.11 194.82 380.90 191.02 C 381.92 181.56 377.70 171.57 369.41 166.60 C 362.67 162.73 354.82 160.21 346.99 160.97 C 341.80 161.36 336.55 160.21 331.41 161.36 M 433.61 164.62 C 429.13 166.88 425.51 170.59 422.55 174.58 C 418.54 180.44 418.36 187.80 417.58 194.60 C 415.44 198.01 411.60 199.99 409.64 203.55 C 406.46 209.09 405.71 215.70 405.86 221.99 C 406.64 231.52 408.27 241.11 412.03 249.96 C 413.72 253.90 415.38 257.84 416.95 261.83 C 421.80 260.19 426.81 258.68 432.00 258.88 C 438.81 258.80 445.30 261.50 451.02 265.00 C 457.79 269.18 462.43 275.91 466.34 282.68 C 470.69 280.86 475.09 278.66 479.95 278.88 C 485.25 278.50 491.03 279.49 494.52 283.89 C 493.58 284.92 492.70 286.00 491.63 286.89 C 488.07 286.77 484.81 284.45 481.19 285.02 C 477.44 285.62 473.73 286.67 470.31 288.32 C 464.58 291.24 460.81 296.93 458.75 302.87 C 462.67 307.05 466.12 311.89 467.43 317.57 C 468.94 322.46 467.35 327.55 465.72 332.18 C 469.09 334.08 473.02 335.36 475.50 338.50 C 481.33 345.84 484.99 355.81 482.18 365.11 C 479.31 373.24 471.99 378.36 465.78 383.80 C 464.63 387.51 464.64 391.79 461.78 394.77 C 459.37 398.19 454.82 398.47 451.06 397.68 C 451.24 396.40 450.87 394.91 451.67 393.80 C 453.38 392.41 455.48 391.58 457.22 390.23 C 458.94 385.85 458.04 380.88 456.45 376.57 C 455.22 374.43 457.49 371.61 459.83 372.05 C 461.83 372.91 462.57 375.79 464.92 375.93 C 468.39 373.88 471.07 370.70 473.74 367.72 C 476.68 364.55 476.11 359.90 476.01 355.94 C 475.86 348.61 471.20 341.30 464.22 338.74 C 461.74 337.78 458.57 338.39 456.56 336.46 C 456.60 332.62 460.47 329.87 461.13 326.05 C 462.18 320.55 460.57 314.36 456.82 310.18 C 453.46 306.24 447.38 306.36 444.47 301.93 C 446.51 298.85 450.27 298.85 453.57 298.74 C 454.76 294.09 457.80 290.29 461.14 286.96 C 457.88 279.70 452.61 273.24 445.62 269.31 C 438.68 264.96 429.86 265.37 422.19 267.15 C 414.82 268.95 410.71 276.23 409.27 283.16 C 408.45 289.68 408.59 296.57 411.42 302.62 C 414.55 310.55 419.75 318.68 417.66 327.55 C 415.44 329.96 411.33 329.64 408.76 331.80 C 405.02 334.98 403.66 340.00 402.54 344.59 C 400.51 352.46 403.47 360.64 407.84 367.17 C 411.05 372.05 417.02 374.70 422.78 374.51 C 426.07 374.17 429.15 372.67 431.95 370.97 C 436.49 368.19 437.20 362.45 440.07 358.35 C 442.08 359.51 444.64 361.16 444.05 363.89 C 441.81 373.87 431.90 380.57 422.02 381.11 C 415.79 380.89 410.02 378.16 404.82 374.91 C 403.21 381.57 402.12 388.60 403.59 395.40 C 405.07 402.10 407.10 408.71 410.12 414.89 C 410.76 415.92 411.06 417.36 412.23 417.95 C 416.91 416.97 421.04 413.97 425.96 413.99 C 430.00 414.03 434.76 413.15 438.21 415.77 C 440.72 417.75 438.02 421.63 435.26 420.65 C 428.03 418.85 420.33 421.15 414.37 425.37 C 411.49 427.44 408.43 429.63 406.93 432.97 C 403.82 439.40 404.41 447.25 408.16 453.29 C 411.09 448.95 414.08 444.34 418.83 441.78 C 425.34 437.70 433.34 437.39 440.76 438.30 C 443.55 438.76 446.43 439.52 448.70 441.28 C 450.57 442.98 449.15 447.31 446.41 446.60 C 441.27 445.10 435.93 442.86 430.53 444.50 C 423.17 445.67 416.14 450.85 414.26 458.25 C 413.65 465.41 413.43 472.95 416.31 479.69 C 418.54 486.11 423.59 491.27 429.54 494.39 C 440.84 500.14 453.90 502.19 466.43 500.40 C 471.40 499.05 475.43 495.45 478.40 491.36 C 483.18 485.10 483.25 476.03 479.64 469.21 C 478.56 466.67 476.50 464.20 477.11 461.28 C 478.57 458.67 481.50 460.44 482.86 462.15 C 486.17 466.10 488.01 471.14 488.93 476.16 C 489.75 480.90 487.50 485.37 487.04 490.01 C 486.74 492.23 489.02 493.34 490.58 494.36 C 496.21 497.46 502.43 500.00 508.96 499.93 C 515.06 499.93 521.38 500.36 527.21 498.14 C 533.68 496.04 539.56 491.15 541.45 484.43 C 543.27 478.88 540.62 473.09 537.40 468.62 C 535.31 465.45 531.09 464.85 528.80 461.92 C 529.14 460.06 530.67 458.85 531.95 457.62 C 535.35 459.16 539.14 460.40 541.59 463.40 C 545.68 468.20 546.90 474.54 548.70 480.40 C 549.87 484.37 553.97 486.21 557.57 487.42 C 564.35 489.60 571.60 490.96 578.71 489.77 C 584.83 488.83 591.55 487.70 596.13 483.15 C 600.19 479.01 600.54 472.74 599.61 467.33 C 598.80 463.64 595.89 461.01 594.14 457.81 C 593.79 455.91 595.86 454.82 596.93 453.60 C 603.39 457.28 606.71 464.82 607.12 472.00 C 606.80 476.56 604.90 480.80 603.70 485.17 C 612.36 488.62 621.96 491.15 631.29 489.24 C 642.09 486.48 649.83 477.60 655.60 468.57 C 660.97 460.15 662.12 448.19 656.20 439.77 C 653.40 438.26 650.01 439.08 646.97 438.87 C 640.06 439.24 633.52 435.98 628.42 431.56 C 625.29 428.70 622.19 424.75 623.23 420.23 C 624.66 420.20 626.16 419.92 627.58 420.32 C 629.55 422.71 630.84 425.69 633.30 427.68 C 638.54 431.63 645.20 434.51 651.87 432.98 C 658.30 431.40 664.73 428.12 668.45 422.45 C 673.94 414.45 676.08 404.56 676.16 394.98 C 675.26 384.17 672.95 373.18 667.22 363.82 C 660.14 350.94 650.13 340.01 642.67 327.38 C 634.93 315.52 631.63 301.51 629.27 287.73 C 628.57 282.76 629.10 277.56 627.18 272.80 C 625.53 267.64 620.97 264.27 616.77 261.24 C 612.23 257.78 606.04 257.37 600.66 258.66 C 596.32 260.55 592.19 264.31 591.14 269.06 C 590.83 275.91 591.77 282.89 589.75 289.58 C 588.05 290.18 586.37 290.79 584.70 291.44 C 582.11 288.10 584.65 283.80 584.07 280.00 C 583.53 272.37 583.84 263.46 589.87 257.89 C 591.56 255.99 595.20 254.81 594.38 251.70 C 594.11 244.20 590.30 237.14 584.39 232.58 C 580.00 228.69 574.60 226.33 569.48 223.59 C 566.77 222.40 567.08 219.04 566.36 216.64 C 564.46 206.24 557.80 196.35 547.81 192.27 C 537.93 186.69 525.87 185.09 514.95 188.28 C 515.42 194.75 516.79 201.24 515.75 207.74 C 515.43 212.40 513.25 216.59 512.03 221.02 C 512.68 222.84 514.67 223.74 516.02 225.03 C 523.67 230.93 527.52 240.26 529.56 249.44 C 532.47 250.09 535.40 250.73 538.17 251.86 C 544.97 254.38 549.27 261.80 548.98 268.92 C 549.04 275.09 549.45 281.70 546.20 287.23 C 545.40 288.75 543.11 289.91 541.77 288.37 C 540.12 286.14 541.32 283.23 541.81 280.80 C 543.72 274.53 543.61 267.37 540.48 261.52 C 536.77 256.09 529.49 256.93 523.96 255.06 C 521.44 254.13 522.21 251.08 521.91 249.01 C 521.94 242.48 518.41 236.54 514.21 231.79 C 508.21 225.59 498.81 223.57 490.55 225.56 C 485.08 226.90 478.77 228.41 475.58 233.53 C 475.41 237.41 476.43 241.27 475.91 245.17 C 474.17 245.00 472.31 245.16 470.73 244.33 C 469.41 241.08 469.90 237.12 467.70 234.27 C 463.38 230.47 457.24 230.85 451.87 230.85 C 452.28 229.11 451.31 226.26 453.56 225.59 C 458.92 224.01 464.71 224.91 469.57 227.56 C 471.86 229.10 473.57 226.41 475.26 225.24 C 480.59 220.54 487.98 218.78 494.95 219.03 C 498.48 218.98 502.09 219.51 505.57 218.66 C 509.82 211.54 511.11 202.77 509.34 194.69 C 507.69 185.72 503.74 176.27 495.67 171.33 C 489.67 167.59 483.37 163.91 476.30 162.71 C 462.25 159.87 447.18 159.44 433.61 164.62 Z" />
<path fill="#561e16" opacity="1.00" d=" M 225.37 315.32 C 227.18 315.17 228.99 315.06 230.80 314.99 C 230.80 321.67 231.58 328.52 234.35 334.66 C 237.77 340.30 244.31 343.02 250.46 344.54 C 254.77 345.74 259.34 345.91 263.55 347.48 C 265.70 348.34 264.81 351.07 265.13 352.86 C 260.37 353.45 255.66 352.34 250.95 351.89 C 253.59 359.21 255.59 367.32 252.88 374.94 C 251.32 378.81 250.42 383.68 246.20 385.57 C 245.10 384.44 244.01 383.30 242.93 382.16 C 245.03 376.63 248.98 371.27 248.06 365.07 C 246.79 358.20 243.37 351.55 237.77 347.23 C 232.31 342.91 226.42 338.36 219.23 337.71 C 217.00 337.78 216.40 335.11 217.24 333.46 C 219.71 331.47 223.13 332.12 226.07 331.84 C 225.12 326.39 224.49 320.83 225.37 315.32 Z" />
<path fill="#561e16" opacity="1.00" d=" M 569.37 314.96 C 571.07 314.99 572.87 314.80 574.49 315.52 C 576.07 320.91 574.37 326.48 573.87 331.90 C 576.43 331.95 579.07 331.71 581.59 332.39 C 583.42 333.27 583.61 335.80 582.33 337.26 C 578.73 338.38 574.71 338.25 571.46 340.41 C 562.56 345.69 553.80 353.42 552.05 364.16 C 550.96 369.88 554.34 374.95 555.91 380.20 C 556.71 382.53 554.41 384.11 553.01 385.54 C 548.89 382.50 547.73 377.28 546.46 372.63 C 544.77 365.62 546.91 358.57 549.04 351.93 C 544.37 352.66 539.64 353.43 534.92 352.79 C 535.24 350.84 534.45 347.53 537.14 347.08 C 545.84 344.47 556.06 344.69 563.04 338.05 C 568.84 331.73 567.54 322.71 569.37 314.96 Z" />
<path fill="#561e16" opacity="1.00" d=" M 181.85 333.15 C 182.81 331.53 184.86 330.77 186.66 331.13 C 188.22 332.50 188.69 334.67 189.43 336.54 C 191.57 343.48 193.45 350.68 193.09 358.01 C 192.80 365.34 192.84 372.67 192.84 380.01 C 193.16 386.65 194.65 393.70 199.17 398.82 C 203.48 403.86 209.31 407.76 215.85 409.16 C 219.88 409.97 223.83 408.37 227.82 408.03 C 229.27 408.97 230.01 410.66 231.05 412.00 C 235.31 418.64 242.95 423.18 250.93 422.97 C 255.84 422.93 261.28 423.55 265.55 420.58 C 271.22 416.84 274.81 410.69 277.02 404.40 C 275.23 403.05 272.93 401.97 272.08 399.76 C 271.90 398.18 272.18 396.60 272.32 395.04 C 277.97 394.90 281.38 400.98 287.02 401.22 C 291.43 401.00 295.43 398.85 299.23 396.78 C 300.38 397.97 302.01 399.08 302.13 400.89 C 298.02 407.04 289.89 406.95 283.32 407.22 C 281.27 410.33 280.32 414.05 278.02 417.02 C 274.61 421.58 270.45 425.93 265.02 428.00 C 255.76 431.66 245.10 430.30 236.47 425.59 C 232.14 423.40 229.23 419.41 225.59 416.36 C 221.39 415.80 217.05 416.31 212.93 415.08 C 202.34 412.27 193.05 404.26 188.94 394.08 C 185.67 386.44 187.54 378.03 187.14 370.01 C 187.53 361.87 186.55 353.76 185.31 345.73 C 184.63 341.40 182.57 337.45 181.85 333.15 Z" />
<path fill="#561e16" opacity="1.00" d=" M 611.65 332.74 C 612.29 330.23 615.60 330.68 617.37 331.67 C 618.64 333.00 617.71 334.78 617.40 336.29 C 615.00 343.65 614.00 351.37 612.97 359.02 C 612.64 367.35 612.96 375.69 613.01 384.03 C 613.08 390.43 610.44 396.59 606.70 401.69 C 600.19 409.70 590.65 416.02 580.02 416.05 C 577.52 416.39 574.32 415.26 572.59 417.66 C 568.10 422.73 562.56 427.25 555.82 428.80 C 544.26 432.13 530.51 428.65 522.98 418.99 C 520.14 415.48 518.97 411.04 516.71 407.20 C 510.50 406.97 503.34 407.08 498.72 402.19 C 496.74 400.53 499.16 398.27 499.87 396.56 C 505.35 399.84 512.09 401.26 518.27 399.29 C 521.14 397.94 523.50 395.77 526.06 393.93 C 526.85 395.58 527.60 397.24 528.33 398.92 C 526.59 400.97 524.76 402.93 522.96 404.91 C 525.99 412.43 530.70 420.87 539.35 422.60 C 546.52 423.32 554.41 423.77 560.76 419.71 C 565.77 417.10 568.61 412.07 572.04 407.82 C 576.98 408.98 582.28 409.73 587.23 408.14 C 594.17 406.00 600.03 400.90 603.70 394.70 C 609.08 383.22 606.55 370.26 607.18 358.06 C 608.11 349.55 608.34 340.77 611.65 332.74 Z" />
</g>
<g id="#db6860ff">
<path fill="#db6860" opacity="1.00" d=" M 331.41 161.36 C 336.55 160.21 341.80 161.36 346.99 160.97 C 354.82 160.21 362.67 162.73 369.41 166.60 C 377.70 171.57 381.92 181.56 380.90 191.02 C 380.11 194.82 383.90 196.65 386.27 198.74 C 392.81 203.56 394.42 212.37 394.10 220.02 C 394.42 228.54 392.79 237.03 390.14 245.09 C 387.69 250.81 385.27 256.55 382.39 262.07 C 374.60 258.05 365.14 257.90 357.03 261.04 C 346.66 264.54 338.15 272.68 333.74 282.63 C 326.81 279.42 319.01 277.79 311.44 279.41 C 308.96 280.12 307.21 282.14 305.51 283.96 C 306.34 285.04 307.10 286.21 308.16 287.11 C 312.88 286.51 317.57 283.72 322.36 285.57 C 331.12 287.59 338.67 294.12 341.20 302.85 C 336.19 308.05 332.26 314.67 331.93 322.04 C 331.73 325.55 333.02 328.89 334.20 332.13 C 330.27 333.96 326.07 335.78 323.40 339.36 C 317.87 346.80 315.07 356.88 318.07 365.90 C 321.03 373.97 328.57 378.85 334.66 384.42 C 334.89 389.00 336.27 393.93 340.24 396.67 C 342.93 398.69 346.55 398.33 349.46 396.99 C 348.55 393.30 345.05 391.78 342.39 389.58 C 339.35 385.87 341.41 381.06 343.30 377.34 C 344.70 375.34 343.55 371.96 340.96 371.82 C 338.32 372.38 336.84 374.94 335.15 376.81 C 331.71 372.96 327.12 369.94 324.81 365.20 C 322.78 357.74 323.54 348.95 329.17 343.18 C 332.49 339.09 337.79 337.78 342.82 337.53 C 343.93 333.36 339.65 330.73 339.24 326.86 C 338.53 321.56 338.46 315.54 342.23 311.28 C 344.62 307.61 348.95 306.38 352.68 304.60 C 354.79 303.70 353.65 301.02 353.73 299.29 C 351.36 299.01 348.96 299.20 346.67 299.88 C 345.69 295.02 342.50 291.16 339.39 287.49 C 338.38 286.52 339.65 285.14 339.99 284.13 C 344.89 275.84 352.51 268.25 362.25 266.30 C 368.13 265.82 374.48 265.27 379.95 267.95 C 387.15 271.02 390.15 279.12 391.97 286.15 C 393.21 297.57 384.99 306.98 382.73 317.74 C 382.12 321.09 381.01 325.08 382.79 328.17 C 386.53 330.00 391.10 330.76 393.62 334.44 C 396.62 337.53 395.98 342.08 396.05 346.01 C 395.88 350.89 396.49 355.85 395.50 360.68 C 393.84 366.21 389.76 371.19 384.32 373.33 C 378.65 375.02 372.19 374.14 367.39 370.59 C 363.12 367.82 362.72 362.25 359.96 358.33 C 357.88 359.47 355.25 361.09 355.95 363.91 C 358.08 374.40 368.87 380.78 379.00 381.20 C 385.08 381.24 390.02 377.10 395.78 375.81 C 395.93 381.54 395.92 387.29 395.94 393.03 C 395.89 401.91 392.03 410.13 388.64 418.14 C 383.38 416.96 378.56 414.02 373.05 413.98 C 368.73 413.84 363.23 413.27 360.28 417.16 C 360.44 419.25 362.27 421.55 364.57 420.61 C 374.06 418.13 383.95 422.70 390.38 429.63 C 396.58 435.72 396.15 446.01 391.96 453.10 C 389.28 449.50 386.81 445.53 382.95 443.06 C 378.20 440.08 372.80 437.63 367.06 438.02 C 360.78 437.87 352.73 437.53 349.25 443.95 C 351.89 447.41 356.27 445.38 359.72 444.73 C 368.17 442.34 378.15 445.49 383.27 452.72 C 386.23 456.87 386.09 462.17 386.04 467.03 C 386.06 474.70 383.20 482.40 378.24 488.25 C 372.69 494.74 364.12 497.00 356.23 499.22 C 349.45 501.44 342.22 501.07 335.21 500.73 C 327.11 499.27 320.77 492.31 318.46 484.64 C 317.37 479.02 317.53 472.76 320.81 467.86 C 321.67 466.03 323.32 464.26 323.03 462.13 C 322.61 459.85 319.40 459.02 317.88 460.77 C 314.60 463.93 312.97 468.41 311.62 472.67 C 309.78 478.79 311.38 485.24 313.76 490.97 C 305.83 497.64 295.22 500.36 285.00 499.97 C 276.10 500.35 266.18 497.80 260.82 490.16 C 255.97 484.28 257.67 475.55 261.79 469.77 C 263.92 466.39 267.89 465.09 270.78 462.55 C 272.09 459.94 268.02 457.53 265.72 458.81 C 258.32 460.56 254.64 467.99 252.72 474.68 C 251.74 477.81 251.75 481.71 248.83 483.81 C 243.43 487.64 236.62 489.33 230.04 488.89 C 221.75 488.54 212.24 490.49 205.28 484.73 C 199.70 480.51 199.05 472.79 200.45 466.44 C 201.61 462.86 204.95 460.54 206.24 457.03 C 205.96 454.91 203.63 454.41 202.05 453.56 C 196.42 457.91 192.91 464.85 192.86 471.97 C 192.85 476.41 195.33 480.37 195.70 484.72 C 194.15 487.33 190.49 487.00 187.92 487.94 C 179.47 490.39 169.97 491.04 161.88 487.07 C 157.08 484.45 153.45 480.21 149.90 476.15 C 145.76 471.30 142.21 465.76 140.53 459.55 C 139.43 452.69 139.62 445.27 143.30 439.15 C 149.63 438.39 156.30 439.89 162.33 437.29 C 168.57 434.75 174.46 430.17 176.96 423.75 C 177.95 421.24 174.88 419.99 173.19 418.95 C 169.32 424.72 164.80 431.71 157.01 431.86 C 150.22 431.65 142.22 433.34 136.71 428.30 C 132.55 424.34 128.98 419.56 126.89 414.18 C 123.21 402.15 123.02 388.94 127.03 376.97 C 129.99 366.72 136.22 357.89 142.28 349.27 C 149.45 339.87 156.46 330.25 161.72 319.62 C 167.89 307.04 169.72 293.00 171.29 279.25 C 172.66 267.64 183.41 258.16 195.01 257.82 C 201.75 258.00 207.16 263.72 209.17 269.81 C 211.25 276.25 209.15 283.07 210.31 289.61 C 211.71 292.38 216.67 291.27 215.95 287.91 C 215.84 279.94 217.28 271.52 214.02 263.98 C 212.26 259.69 208.19 257.14 205.39 253.65 C 204.97 244.27 210.97 235.70 218.52 230.57 C 222.73 227.17 228.11 225.62 232.28 222.22 C 234.22 216.72 234.37 210.58 237.65 205.57 C 241.53 198.15 248.74 193.17 256.55 190.62 C 265.55 186.60 275.57 188.59 285.09 188.19 C 284.05 195.54 283.22 203.07 284.56 210.44 C 285.23 214.32 287.35 217.81 287.76 221.74 C 285.11 224.45 281.74 226.37 279.29 229.29 C 274.41 235.03 272.05 242.37 270.66 249.67 C 264.11 250.03 256.96 252.49 253.66 258.57 C 250.89 264.06 248.93 270.42 250.42 276.58 C 251.48 281.12 251.95 286.43 255.97 289.48 C 257.89 288.37 259.92 286.64 258.93 284.15 C 256.72 276.49 255.06 267.16 260.47 260.41 C 264.49 255.61 271.66 257.38 276.52 254.53 C 277.78 249.75 277.60 244.55 280.00 240.09 C 282.68 235.07 286.22 230.04 291.48 227.49 C 301.49 222.97 314.08 224.31 322.58 231.37 C 325.28 234.39 323.43 238.60 323.18 242.12 C 322.29 245.64 328.16 246.06 329.27 243.24 C 330.32 240.49 330.18 237.28 331.78 234.75 C 336.10 230.47 342.51 230.69 348.14 230.78 C 348.01 229.06 348.12 227.25 347.38 225.65 C 341.77 224.13 335.50 224.65 330.37 227.47 C 328.42 228.95 326.72 226.79 325.23 225.74 C 321.15 222.35 316.16 219.97 310.90 219.15 C 305.37 218.84 299.82 219.29 294.29 218.87 C 289.43 209.47 288.34 198.09 292.14 188.14 C 295.20 178.92 302.36 171.23 311.19 167.27 C 317.53 164.12 324.55 162.82 331.41 161.36 M 225.37 315.32 C 224.49 320.83 225.12 326.39 226.07 331.84 C 223.13 332.12 219.71 331.47 217.24 333.46 C 216.40 335.11 217.00 337.78 219.23 337.71 C 226.42 338.36 232.31 342.91 237.77 347.23 C 243.37 351.55 246.79 358.20 248.06 365.07 C 248.98 371.27 245.03 376.63 242.93 382.16 C 244.01 383.30 245.10 384.44 246.20 385.57 C 250.42 383.68 251.32 378.81 252.88 374.94 C 255.59 367.32 253.59 359.21 250.95 351.89 C 255.66 352.34 260.37 353.45 265.13 352.86 C 264.81 351.07 265.70 348.34 263.55 347.48 C 259.34 345.91 254.77 345.74 250.46 344.54 C 244.31 343.02 237.77 340.30 234.35 334.66 C 231.58 328.52 230.80 321.67 230.80 314.99 C 228.99 315.06 227.18 315.17 225.37 315.32 M 181.85 333.15 C 182.57 337.45 184.63 341.40 185.31 345.73 C 186.55 353.76 187.53 361.87 187.14 370.01 C 187.54 378.03 185.67 386.44 188.94 394.08 C 193.05 404.26 202.34 412.27 212.93 415.08 C 217.05 416.31 221.39 415.80 225.59 416.36 C 229.23 419.41 232.14 423.40 236.47 425.59 C 245.10 430.30 255.76 431.66 265.02 428.00 C 270.45 425.93 274.61 421.58 278.02 417.02 C 280.32 414.05 281.27 410.33 283.32 407.22 C 289.89 406.95 298.02 407.04 302.13 400.89 C 302.01 399.08 300.38 397.97 299.23 396.78 C 295.43 398.85 291.43 401.00 287.02 401.22 C 281.38 400.98 277.97 394.90 272.32 395.04 C 272.18 396.60 271.90 398.18 272.08 399.76 C 272.93 401.97 275.23 403.05 277.02 404.40 C 274.81 410.69 271.22 416.84 265.55 420.58 C 261.28 423.55 255.84 422.93 250.93 422.97 C 242.95 423.18 235.31 418.64 231.05 412.00 C 230.01 410.66 229.27 408.97 227.82 408.03 C 223.83 408.37 219.88 409.97 215.85 409.16 C 209.31 407.76 203.48 403.86 199.17 398.82 C 194.65 393.70 193.16 386.65 192.84 380.01 C 192.84 372.67 192.80 365.34 193.09 358.01 C 193.45 350.68 191.57 343.48 189.43 336.54 C 188.69 334.67 188.22 332.50 186.66 331.13 C 184.86 330.77 182.81 331.53 181.85 333.15 Z" />
<path fill="#db6860" opacity="1.00" d=" M 433.61 164.62 C 447.18 159.44 462.25 159.87 476.30 162.71 C 483.37 163.91 489.67 167.59 495.67 171.33 C 503.74 176.27 507.69 185.72 509.34 194.69 C 511.11 202.77 509.82 211.54 505.57 218.66 C 502.09 219.51 498.48 218.98 494.95 219.03 C 487.98 218.78 480.59 220.54 475.26 225.24 C 473.57 226.41 471.86 229.10 469.57 227.56 C 464.71 224.91 458.92 224.01 453.56 225.59 C 451.31 226.26 452.28 229.11 451.87 230.85 C 457.24 230.85 463.38 230.47 467.70 234.27 C 469.90 237.12 469.41 241.08 470.73 244.33 C 472.31 245.16 474.17 245.00 475.91 245.17 C 476.43 241.27 475.41 237.41 475.58 233.53 C 478.77 228.41 485.08 226.90 490.55 225.56 C 498.81 223.57 508.21 225.59 514.21 231.79 C 518.41 236.54 521.94 242.48 521.91 249.01 C 522.21 251.08 521.44 254.13 523.96 255.06 C 529.49 256.93 536.77 256.09 540.48 261.52 C 543.61 267.37 543.72 274.53 541.81 280.80 C 541.32 283.23 540.12 286.14 541.77 288.37 C 543.11 289.91 545.40 288.75 546.20 287.23 C 549.45 281.70 549.04 275.09 548.98 268.92 C 549.27 261.80 544.97 254.38 538.17 251.86 C 535.40 250.73 532.47 250.09 529.56 249.44 C 527.52 240.26 523.67 230.93 516.02 225.03 C 514.67 223.74 512.68 222.84 512.03 221.02 C 513.25 216.59 515.43 212.40 515.75 207.74 C 516.79 201.24 515.42 194.75 514.95 188.28 C 525.87 185.09 537.93 186.69 547.81 192.27 C 557.80 196.35 564.46 206.24 566.36 216.64 C 567.08 219.04 566.77 222.40 569.48 223.59 C 574.60 226.33 580.00 228.69 584.39 232.58 C 590.30 237.14 594.11 244.20 594.38 251.70 C 595.20 254.81 591.56 255.99 589.87 257.89 C 583.84 263.46 583.53 272.37 584.07 280.00 C 584.65 283.80 582.11 288.10 584.70 291.44 C 586.37 290.79 588.05 290.18 589.75 289.58 C 591.77 282.89 590.83 275.91 591.14 269.06 C 592.19 264.31 596.32 260.55 600.66 258.66 C 606.04 257.37 612.23 257.78 616.77 261.24 C 620.97 264.27 625.53 267.64 627.18 272.80 C 629.10 277.56 628.57 282.76 629.27 287.73 C 631.63 301.51 634.93 315.52 642.67 327.38 C 650.13 340.01 660.14 350.94 667.22 363.82 C 672.95 373.18 675.26 384.17 676.16 394.98 C 676.08 404.56 673.94 414.45 668.45 422.45 C 664.73 428.12 658.30 431.40 651.87 432.98 C 645.20 434.51 638.54 431.63 633.30 427.68 C 630.84 425.69 629.55 422.71 627.58 420.32 C 626.16 419.92 624.66 420.20 623.23 420.23 C 622.19 424.75 625.29 428.70 628.42 431.56 C 633.52 435.98 640.06 439.24 646.97 438.87 C 650.01 439.08 653.40 438.26 656.20 439.77 C 662.12 448.19 660.97 460.15 655.60 468.57 C 649.83 477.60 642.09 486.48 631.29 489.24 C 621.96 491.15 612.36 488.62 603.70 485.17 C 604.90 480.80 606.80 476.56 607.12 472.00 C 606.71 464.82 603.39 457.28 596.93 453.60 C 595.86 454.82 593.79 455.91 594.14 457.81 C 595.89 461.01 598.80 463.64 599.61 467.33 C 600.54 472.74 600.19 479.01 596.13 483.15 C 591.55 487.70 584.83 488.83 578.71 489.77 C 571.60 490.96 564.35 489.60 557.57 487.42 C 553.97 486.21 549.87 484.37 548.70 480.40 C 546.90 474.54 545.68 468.20 541.59 463.40 C 539.14 460.40 535.35 459.16 531.95 457.62 C 530.67 458.85 529.14 460.06 528.80 461.92 C 531.09 464.85 535.31 465.45 537.40 468.62 C 540.62 473.09 543.27 478.88 541.45 484.43 C 539.56 491.15 533.68 496.04 527.21 498.14 C 521.38 500.36 515.06 499.93 508.96 499.93 C 502.43 500.00 496.21 497.46 490.58 494.36 C 489.02 493.34 486.74 492.23 487.04 490.01 C 487.50 485.37 489.75 480.90 488.93 476.16 C 488.01 471.14 486.17 466.10 482.86 462.15 C 481.50 460.44 478.57 458.67 477.11 461.28 C 476.50 464.20 478.56 466.67 479.64 469.21 C 483.25 476.03 483.18 485.10 478.40 491.36 C 475.43 495.45 471.40 499.05 466.43 500.40 C 453.90 502.19 440.84 500.14 429.54 494.39 C 423.59 491.27 418.54 486.11 416.31 479.69 C 413.43 472.95 413.65 465.41 414.26 458.25 C 416.14 450.85 423.17 445.67 430.53 444.50 C 435.93 442.86 441.27 445.10 446.41 446.60 C 449.15 447.31 450.57 442.98 448.70 441.28 C 446.43 439.52 443.55 438.76 440.76 438.30 C 433.34 437.39 425.34 437.70 418.83 441.78 C 414.08 444.34 411.09 448.95 408.16 453.29 C 404.41 447.25 403.82 439.40 406.93 432.97 C 408.43 429.63 411.49 427.44 414.37 425.37 C 420.33 421.15 428.03 418.85 435.26 420.65 C 438.02 421.63 440.72 417.75 438.21 415.77 C 434.76 413.15 430.00 414.03 425.96 413.99 C 421.04 413.97 416.91 416.97 412.23 417.95 C 411.06 417.36 410.76 415.92 410.12 414.89 C 407.10 408.71 405.07 402.10 403.59 395.40 C 402.12 388.60 403.21 381.57 404.82 374.91 C 410.02 378.16 415.79 380.89 422.02 381.11 C 431.90 380.57 441.81 373.87 444.05 363.89 C 444.64 361.16 442.08 359.51 440.07 358.35 C 437.20 362.45 436.49 368.19 431.95 370.97 C 429.15 372.67 426.07 374.17 422.78 374.51 C 417.02 374.70 411.05 372.05 407.84 367.17 C 403.47 360.64 400.51 352.46 402.54 344.59 C 403.66 340.00 405.02 334.98 408.76 331.80 C 411.33 329.64 415.44 329.96 417.66 327.55 C 419.75 318.68 414.55 310.55 411.42 302.62 C 408.59 296.57 408.45 289.68 409.27 283.16 C 410.71 276.23 414.82 268.95 422.19 267.15 C 429.86 265.37 438.68 264.96 445.62 269.31 C 452.61 273.24 457.88 279.70 461.14 286.96 C 457.80 290.29 454.76 294.09 453.57 298.74 C 450.27 298.85 446.51 298.85 444.47 301.93 C 447.38 306.36 453.46 306.24 456.82 310.18 C 460.57 314.36 462.18 320.55 461.13 326.05 C 460.47 329.87 456.60 332.62 456.56 336.46 C 458.57 338.39 461.74 337.78 464.22 338.74 C 471.20 341.30 475.86 348.61 476.01 355.94 C 476.11 359.90 476.68 364.55 473.74 367.72 C 471.07 370.70 468.39 373.88 464.92 375.93 C 462.57 375.79 461.83 372.91 459.83 372.05 C 457.49 371.61 455.22 374.43 456.45 376.57 C 458.04 380.88 458.94 385.85 457.22 390.23 C 455.48 391.58 453.38 392.41 451.67 393.80 C 450.87 394.91 451.24 396.40 451.06 397.68 C 454.82 398.47 459.37 398.19 461.78 394.77 C 464.64 391.79 464.63 387.51 465.78 383.80 C 471.99 378.36 479.31 373.24 482.18 365.11 C 484.99 355.81 481.33 345.84 475.50 338.50 C 473.02 335.36 469.09 334.08 465.72 332.18 C 467.35 327.55 468.94 322.46 467.43 317.57 C 466.12 311.89 462.67 307.05 458.75 302.87 C 460.81 296.93 464.58 291.24 470.31 288.32 C 473.73 286.67 477.44 285.62 481.19 285.02 C 484.81 284.45 488.07 286.77 491.63 286.89 C 492.70 286.00 493.58 284.92 494.52 283.89 C 491.03 279.49 485.25 278.50 479.95 278.88 C 475.09 278.66 470.69 280.86 466.34 282.68 C 462.43 275.91 457.79 269.18 451.02 265.00 C 445.30 261.50 438.81 258.80 432.00 258.88 C 426.81 258.68 421.80 260.19 416.95 261.83 C 415.38 257.84 413.72 253.90 412.03 249.96 C 408.27 241.11 406.64 231.52 405.86 221.99 C 405.71 215.70 406.46 209.09 409.64 203.55 C 411.60 199.99 415.44 198.01 417.58 194.60 C 418.36 187.80 418.54 180.44 422.55 174.58 C 425.51 170.59 429.13 166.88 433.61 164.62 M 569.37 314.96 C 567.54 322.71 568.84 331.73 563.04 338.05 C 556.06 344.69 545.84 344.47 537.14 347.08 C 534.45 347.53 535.24 350.84 534.92 352.79 C 539.64 353.43 544.37 352.66 549.04 351.93 C 546.91 358.57 544.77 365.62 546.46 372.63 C 547.73 377.28 548.89 382.50 553.01 385.54 C 554.41 384.11 556.71 382.53 555.91 380.20 C 554.34 374.95 550.96 369.88 552.05 364.16 C 553.80 353.42 562.56 345.69 571.46 340.41 C 574.71 338.25 578.73 338.38 582.33 337.26 C 583.61 335.80 583.42 333.27 581.59 332.39 C 579.07 331.71 576.43 331.95 573.87 331.90 C 574.37 326.48 576.07 320.91 574.49 315.52 C 572.87 314.80 571.07 314.99 569.37 314.96 M 611.65 332.74 C 608.34 340.77 608.11 349.55 607.18 358.06 C 606.55 370.26 609.08 383.22 603.70 394.70 C 600.03 400.90 594.17 406.00 587.23 408.14 C 582.28 409.73 576.98 408.98 572.04 407.82 C 568.61 412.07 565.77 417.10 560.76 419.71 C 554.41 423.77 546.52 423.32 539.35 422.60 C 530.70 420.87 525.99 412.43 522.96 404.91 C 524.76 402.93 526.59 400.97 528.33 398.92 C 527.60 397.24 526.85 395.58 526.06 393.93 C 523.50 395.77 521.14 397.94 518.27 399.29 C 512.09 401.26 505.35 399.84 499.87 396.56 C 499.16 398.27 496.74 400.53 498.72 402.19 C 503.34 407.08 510.50 406.97 516.71 407.20 C 518.97 411.04 520.14 415.48 522.98 418.99 C 530.51 428.65 544.26 432.13 555.82 428.80 C 562.56 427.25 568.10 422.73 572.59 417.66 C 574.32 415.26 577.52 416.39 580.02 416.05 C 590.65 416.02 600.19 409.70 606.70 401.69 C 610.44 396.59 613.08 390.43 613.01 384.03 C 612.96 375.69 612.64 367.35 612.97 359.02 C 614.00 351.37 615.00 343.65 617.40 336.29 C 617.71 334.78 618.64 333.00 617.37 331.67 C 615.60 330.68 612.29 330.23 611.65 332.74 Z" />
</g>
</svg>
